<svg width="180" height="44" viewBox="0 0 180 44" fill="none" xmlns="http://www.w3.org/2000/svg">
<g filter="url(#filter0_d)">
<path d="M43.3512 34.921L36.8826 34.9562L19.6326 17.7764L9.03383 25.4983L9.08612 35.1075L4.2815 35.1336L4.09861 1.52476L8.90323 1.49861L9.00513 20.2249L35.2466 1.35526L42.2543 1.31713L23.2744 15.1081L43.3512 34.921ZM86.6888 17.8803C86.7015 20.2084 86.3384 22.3979 85.5996 24.4488C84.8763 26.4996 83.8392 28.2866 82.4881 29.8096C81.137 31.3326 79.5107 32.5367 77.6092 33.4221C75.7234 34.3074 73.6242 34.7563 71.3118 34.7689L54.3667 34.8611L54.3406 30.0565L71.2856 29.9643C72.9418 29.9553 74.4245 29.6347 75.7336 29.0025C77.0583 28.3703 78.1708 27.5127 79.0712 26.4297C79.9871 25.3309 80.6833 24.0537 81.1597 22.5979C81.6517 21.1265 81.8932 19.5626 81.8842 17.9064C81.8752 16.2502 81.6168 14.6969 81.1089 13.2465C80.6166 11.796 79.9066 10.5343 78.9788 9.46116C78.0667 8.37236 76.9448 7.51907 75.6133 6.90131C74.2973 6.26784 72.8112 5.95561 71.155 5.96462L51.8194 6.06984L51.9761 34.8741L47.1715 34.9002L46.9886 1.29136L71.1289 1.16C73.4413 1.14742 75.5453 1.58129 77.4407 2.46161C79.3517 3.32623 80.9911 4.52045 82.3587 6.04428C83.7263 7.55248 84.7829 9.32801 85.5284 11.3709C86.2894 13.398 86.6763 15.5678 86.6888 17.8803ZM132.438 17.6313C132.451 19.9594 132.088 22.1489 131.349 24.1998C130.626 26.2507 129.588 28.0376 128.237 29.5606C126.886 31.0836 125.26 32.2878 123.359 33.1731C121.473 34.0584 119.374 34.5073 117.061 34.5199L100.116 34.6121L100.09 29.8075L117.035 29.7153C118.691 29.7063 120.174 29.3857 121.483 28.7536C122.808 28.1214 123.92 27.2637 124.821 26.1807C125.736 25.082 126.433 23.8047 126.909 22.349C127.401 20.8775 127.643 19.3137 127.634 17.6575C127.625 16.0012 127.366 14.4479 126.858 12.9975C126.366 11.5471 125.656 10.2853 124.728 9.21221C123.816 8.1234 122.694 7.27012 121.363 6.65236C120.047 6.01888 118.561 5.70665 116.904 5.71567L97.5687 5.82088L97.7254 34.6251L92.9208 34.6513L92.7379 1.04241L116.878 0.91105C119.191 0.898466 121.295 1.33234 123.19 2.21266C125.101 3.07727 126.74 4.2715 128.108 5.79533C129.476 7.30353 130.532 9.07906 131.278 11.1219C132.039 13.149 132.426 15.3188 132.438 17.6313ZM175.719 24.5912C175.726 25.9349 175.483 27.1941 174.989 28.3687C174.496 29.5276 173.814 30.547 172.944 31.4267C172.089 32.2908 171.077 32.976 169.908 33.4823C168.754 33.9886 167.513 34.2454 166.185 34.2526L136.983 34.4115L136.957 29.6069L166.159 29.448C166.831 29.4443 167.455 29.3159 168.032 29.0628C168.609 28.8097 169.107 28.4632 169.527 28.0234C169.962 27.5835 170.303 27.0739 170.549 26.4944C170.796 25.8993 170.918 25.2736 170.914 24.6174C170.911 23.9611 170.782 23.3446 170.529 22.7679C170.276 22.1911 169.93 21.6852 169.49 21.2501C169.065 20.8149 168.564 20.4738 167.984 20.227C167.405 19.9801 166.779 19.8585 166.107 19.8622L146.514 19.9688C145.201 19.976 143.958 19.7327 142.783 19.2391C141.608 18.7455 140.581 18.0714 139.702 17.2168C138.838 16.3465 138.144 15.3268 137.622 14.1577C137.116 12.9886 136.859 11.74 136.852 10.4119C136.845 9.0994 137.088 7.85587 137.582 6.68129C138.091 5.50662 138.773 4.48727 139.628 3.62323C140.498 2.74349 141.518 2.05043 142.687 1.54406C143.856 1.02206 145.097 0.757496 146.409 0.750354L173.198 0.60458L173.224 5.4092L146.435 5.55497C145.779 5.55854 145.155 5.68694 144.562 5.94017C143.985 6.19331 143.48 6.53982 143.044 6.97969C142.609 7.41957 142.268 7.93705 142.022 8.53216C141.775 9.11163 141.653 9.72949 141.657 10.3857C141.66 11.042 141.789 11.6663 142.042 12.2587C142.295 12.8354 142.642 13.3414 143.081 13.7765C143.521 14.2116 144.031 14.5526 144.61 14.7994C145.206 15.0462 145.831 15.1678 146.487 15.1642L166.081 15.0576C167.409 15.0504 168.653 15.3014 169.812 15.8107C170.986 16.3043 172.006 16.9863 172.87 17.8566C173.749 18.7112 174.442 19.7231 174.949 20.8922C175.455 22.0457 175.712 23.2787 175.719 24.5912Z" fill="url(#paint0_linear)"/>
</g>
<defs>
<filter id="filter0_d" x="0.0986328" y="0.604492" width="179.62" height="42.5291" filterUnits="userSpaceOnUse" color-interpolation-filters="sRGB">
<feFlood flood-opacity="0" result="BackgroundImageFix"/>
<feColorMatrix in="SourceAlpha" type="matrix" values="0 0 0 0 0 0 0 0 0 0 0 0 0 0 0 0 0 0 127 0"/>
<feOffset dy="4"/>
<feGaussianBlur stdDeviation="2"/>
<feColorMatrix type="matrix" values="0 0 0 0 0 0 0 0 0 0 0 0 0 0 0 0 0 0 0.25 0"/>
<feBlend mode="normal" in2="BackgroundImageFix" result="effect1_dropShadow"/>
<feBlend mode="normal" in="SourceGraphic" in2="effect1_dropShadow" result="shape"/>
</filter>
<linearGradient id="paint0_linear" x1="106.282" y1="-11.4221" x2="106.718" y2="68.7346" gradientUnits="userSpaceOnUse">
<stop stop-color="#C9F2FF"/>
<stop offset="1" stop-color="#41A6C6" stop-opacity="0"/>
</linearGradient>
</defs>
</svg>
